<?xml version="1.0" encoding="UTF-8"?>
<svg width="14px" height="14px" viewBox="0 0 14 14" version="1.1" xmlns="http://www.w3.org/2000/svg" xmlns:xlink="http://www.w3.org/1999/xlink">
    <!-- Generator: Sketch 58 (84663) - https://sketch.com -->
    <title>14 x 14 / dark outline</title>
    <desc>Created with Sketch.</desc>
    <defs>
        <rect id="path-1" x="0" y="0" width="14" height="14" rx="3.5"></rect>
        <linearGradient x1="50%" y1="-3.02450737e-14%" x2="50%" y2="100%" id="linearGradient-3">
            <stop stop-color="#757D85" offset="0%"></stop>
            <stop stop-color="#5A6167" offset="100%"></stop>
        </linearGradient>
        <rect id="path-4" x="0" y="0" width="14" height="14" rx="3.5"></rect>
    </defs>
    <g id="14-x-14-/-dark-outline" stroke="none" stroke-width="1" fill="none" fill-rule="evenodd">
        <g id="Icon-Artboard">
            <mask id="mask-2" fill="white">
                <use xlink:href="#path-1"></use>
            </mask>
            <g id="Mask"></g>
            <g mask="url(#mask-2)">
                <g id="BG-style-/-Grey" fill="url(#linearGradient-3)">
                    <rect id="BG" x="0" y="0" width="14" height="14"></rect>
                </g>
                <g id="note" stroke-width="1" transform="translate(4.511719, 3.458984)" fill="#FFDA48">
                    <path d="M5.06448545,1.46363751 L4.14408996,0.214091435 C4.04587344,0.0808159722 3.91251883,0.00584852431 3.77347145,0.00584852431 L0.530624893,0.00584852431 C0.241537218,0.00584852431 0.00715241609,0.323263889 0.00715241609,0.714760561 L0.00715241609,6.34183847 C0.00715241609,6.73333514 0.241537218,7.05075051 0.530624893,7.05075051 L4.69386693,7.05075051 C4.98295461,7.05075051 5.21733941,6.73333514 5.21733941,6.34183847 L5.21733941,1.96430664 C5.21733941,1.77662218 5.16244023,1.59655852 5.06448545,1.46363751 Z M0.923168039,2.54881727 L4.28644929,2.54881727 L4.28644929,3.4648329 L0.923168039,3.4648329 L0.923168039,2.54881727 Z M0.923168039,4.57225477 L4.28644929,4.57225477 L4.28644929,5.4882704 L0.923168039,5.4882704 L0.923168039,4.57225477 Z" id="Shape" fill-rule="nonzero"></path>
                </g>
            </g>
            <mask id="mask-5" fill="white">
                <use xlink:href="#path-4"></use>
            </mask>
            <rect stroke-opacity="0.2" stroke="#000000" x="0.5" y="0.5" width="13" height="13" rx="3.5"></rect>
        </g>
    </g>
</svg>